<?xml version="1.0" encoding="iso-8859-1"?>
<!-- Uploaded to: SVG Repo, www.svgrepo.com, Generator: SVG Repo Mixer Tools -->
<svg height="800px" width="800px" version="1.1" id="Layer_1" xmlns="http://www.w3.org/2000/svg" xmlns:xlink="http://www.w3.org/1999/xlink" 
	 viewBox="0 0 511.998 511.998" xml:space="preserve">
<circle style="fill:#FF5B62;" cx="255.999" cy="255.999" r="255.999"/>
<path style="fill:#FAD24D;" d="M182.382,217.457c-8.493-6.756-19.199-11.999-28.648-16.633c-5.644-2.765-10.974-5.377-14.856-7.852
	c-9.024-5.75-15.605-20.476-14.669-32.819c0.401-5.283,2.399-12.246,9.644-15.443c7.704-3.404,13.507,2.726,15.412,4.741
	c4.01,4.238,7.52,10.401,9.626,16.916c1.592,4.91,1.858,8.403,1.694,10.244c-2.805-0.403-5.589,1.231-6.539,4.008
	c-1.076,3.14,0.598,6.559,3.74,7.635c4.95,1.694,9.507,0.45,12.259-3.303c4.099,12.64,9.19,24.339,15.112,34.861
	c-0.886-0.793-1.801-1.581-2.779-2.354h0.004V217.457z M264.346,434.981L264.346,434.981h50.311v-5.276
	c-14.786-0.952-34.1-34.025-35.262-51.902l-6.65-102.389c22.179-2.748,42.434-16.247,58.657-37.209
	c-0.642,2.494-0.95,5.058-0.939,7.706c0.046,8.211,4.548,15.202,12.034,18.71c3.12,1.459,6.455,2.176,9.748,2.176
	c5.018,0,9.94-1.66,13.844-4.877c8.696-7.168,9.639-16.126,6.081-21.27c-3.018-4.354-8.499-5.452-13.339-2.673
	c-2.873,1.656-3.867,5.336-2.212,8.211c1.047,1.827,2.912,2.89,4.863,3.005c-0.525,0.944-1.446,2.137-3.045,3.45
	c-2.853,2.352-7.21,2.79-10.841,1.087c-1.9-0.886-5.084-3.093-5.113-7.887c-0.04-6.778,3.554-12.806,11.304-18.975
	c7.47-5.944,17.555-10.886,26.456-15.246c5.951-2.915,11.573-5.671,16.023-8.506c6.247-3.98,11.75-10.738,15.485-19.019
	c3.645-8.072,5.321-16.9,4.712-24.857c-0.917-12.091-6.873-21.158-16.774-25.53c-10.68-4.719-21.971-1.178-30.969,9.704
	c-0.326,0.394-0.649,0.793-0.961,1.202c1.519-11.121,2.343-22.653,2.381-34.478H264.339H158.54
	c0.035,11.823,0.862,23.353,2.379,34.478c-0.315-0.408-0.633-0.809-0.959-1.202c-8.998-10.881-20.289-14.422-30.971-9.704
	c-9.898,4.372-15.855,13.439-16.77,25.53c-0.609,7.955,1.065,16.783,4.708,24.857c3.74,8.282,9.238,15.04,15.487,19.019
	c4.447,2.835,10.069,5.591,16.025,8.506c8.901,4.361,18.986,9.302,26.453,15.246c7.752,6.169,11.34,12.197,11.307,18.975
	c-0.029,4.794-3.215,7-5.111,7.887c-3.631,1.702-7.988,1.266-10.846-1.087c-1.594-1.314-2.52-2.507-3.043-3.45
	c1.953-0.115,3.815-1.18,4.866-3.005c1.654-2.875,0.662-6.555-2.216-8.211c-4.838-2.781-10.323-1.683-13.337,2.673
	c-3.563,5.144-2.615,14.102,6.083,21.27c3.902,3.217,8.822,4.877,13.842,4.877c3.297,0,6.632-0.717,9.75-2.176
	c7.487-3.508,11.984-10.499,12.034-18.71c0.011-2.648-0.297-5.212-0.939-7.706c16.221,20.961,36.48,34.464,58.657,37.209
	l-6.652,102.389c-1.16,17.877-20.474,50.949-35.26,51.902v5.276h50.313L264.346,434.981L264.346,434.981z M346.304,217.457
	L346.304,217.457c-0.977,0.773-1.887,1.561-2.774,2.354c5.92-10.521,11.011-22.221,15.109-34.861
	c2.759,3.753,7.309,4.996,12.261,3.303c3.142-1.076,4.82-4.495,3.744-7.635c-0.952-2.781-3.735-4.412-6.544-4.008
	c-0.161-1.841,0.104-5.334,1.694-10.244c2.108-6.513,5.622-12.675,9.631-16.916c1.909-2.015,7.708-8.145,15.414-4.741
	c7.243,3.197,9.243,10.158,9.642,15.443c0.939,12.345-5.642,27.071-14.671,32.819c-3.876,2.474-9.207,5.087-14.85,7.852
	c-9.448,4.635-20.159,9.878-28.652,16.633h-0.004V217.457z"/>
<path style="fill:#EDB937;" d="M347.988,110.138c0,0,20.532,138.958-79.021,163.502l6.107,103.972
	c-0.25,27.658,22.476,57.368,39.582,57.368v-5.276c-14.786-0.952-34.1-34.025-35.262-51.902l-6.65-102.389
	c22.049-2.732,42.198-16.096,58.38-36.852c0.095-0.144,0.19-0.266,0.28-0.359c0,0,7.744-9.095,13.498-19.588
	c-0.467,0.397-0.921,0.796-1.371,1.2c1.687-2.992,3.306-6.087,4.855-9.267c5.184-12.336,10.255-25.596,10.255-25.596
	c3.058-9.763,7.137-26.119,9.124-40.335c1.519-11.121,2.343-22.653,2.381-34.478L347.988,110.138L347.988,110.138z"/>
<path style="fill:#666666;" d="M191.864,503.895v-58.267c0-5.865,4.783-10.649,10.645-10.649h123.672
	c5.863,0,10.643,4.783,10.643,10.649v53.338c-25.407,8.448-52.577,13.032-80.822,13.032
	C233.852,511.998,212.361,509.182,191.864,503.895z"/>
<path style="fill:#FAD24D;" d="M372.738,110.138H155.955c-2.602,0-4.71-2.108-4.71-4.708v-0.097c0-2.602,2.108-4.708,4.71-4.708
	h216.783c2.6,0,4.708,2.106,4.708,4.708v0.097C377.445,108.031,375.339,110.138,372.738,110.138z"/>
<g>
	<path style="fill:#807D7D;" d="M229.681,463.961h68.789v6.548h-68.789V463.961z"/>
	<path style="fill:#807D7D;" d="M229.681,479.17h68.789v6.55h-68.789V479.17z"/>
	<path style="fill:#807D7D;" d="M243.765,494.379h40.624v6.55h-40.624L243.765,494.379L243.765,494.379z"/>
</g>
<path style="fill:#FFFFFF;" d="M264.346,133.387l10.427,32.301l33.944-0.064l-27.499,19.899l10.55,32.259l-27.421-20.002
	l-27.421,20.002l10.55-32.259l-27.501-19.899l33.944,0.064l10.427-32.301L264.346,133.387L264.346,133.387z"/>
</svg>