<?xml version="1.0" encoding="utf-8"?>
<!-- Uploaded to: SVG Repo, www.svgrepo.com, Generator: SVG Repo Mixer Tools -->
<svg version="1.1" id="Uploaded to svgrepo.com" xmlns="http://www.w3.org/2000/svg" xmlns:xlink="http://www.w3.org/1999/xlink" 
	 width="800px" height="800px" viewBox="0 0 64 64" xml:space="preserve">
<style type="text/css">
	.fandom_een{fill:#FF786E;}
	.fandom_drie{fill:#BE9148;}
	.fandom_vier{fill:#FFC865;}
	.fandom_vijf{fill:#018273;}
	.fandom_zes{fill:#00B3AA;}
	.fandom_veertien{fill:#EFEAE0;}
	.fandom_vijftien{fill:#3A3A3A;}
	.fandom_zeventien{fill:#666666;}
	.st0{fill:#6BC4D2;}
	.st1{fill:#508D9B;}
	.st2{fill:#4B322A;}
	.st3{fill:#BE5652;}
	.st4{fill:#644638;}
	.st5{fill:#8579A3;}
	.st6{fill:#685683;}
	.st7{fill:#4D4D4D;}
	.st8{fill:#CCCCCC;}
	.st9{fill:#AA9991;}
	.st10{fill:#808080;}
	.st11{fill:#FFFAFA;}
</style>
<g>
	<g>
		<path class="fandom_vijf" d="M32,57c13.807,0,25-11.193,25-25H7C7,45.807,18.193,57,32,57z"/>
		<path class="fandom_zes" d="M32,7C18.193,7,7,18.193,7,32h50C57,18.193,45.807,7,32,7z"/>
	</g>
	<g>
		<path class="fandom_een" d="M16.909,47.472l-2.796-4.145c-0.613-0.909-0.378-2.14,0.522-2.762
			C14.379,40.612,6.608,42.125,5,49.488c0,0,2.109,0.551,4.898-0.294c-0.939,1.169-1.713,2.619-2.108,4.43
			c0,0,6.597,1.732,11.896-5.612C19.686,48.012,18.146,49.083,16.909,47.472z"/>
		<path class="fandom_drie" d="M55.313,20.358l4.145-2.796l-1.678-2.487c-1.235-1.831-3.722-2.315-5.553-1.079L14.922,39.162
			l6.152,9.119c0.309,0.458,0.93,0.579,1.388,0.27l38.963-26.284c0.458-0.309,0.579-0.93,0.27-1.388l-1.118-1.658l-4.145,2.796
			c-0.458,0.309-1.079,0.188-1.388-0.27C54.734,21.289,54.855,20.667,55.313,20.358z"/>
		<path class="fandom_veertien" d="M23.462,28.576l-3.355-4.974c-0.309-0.458-0.188-1.079,0.27-1.388l4.974-3.355
			c0.458-0.309,1.079-0.188,1.388,0.27l3.355,4.974c0.309,0.458,0.188,1.079-0.27,1.388l-4.974,3.355
			C24.392,29.154,23.771,29.034,23.462,28.576z M17.06,24.45l-2.487,1.678c-1.831,1.235-2.315,3.722-1.079,5.553l1.678,2.487
			c0.309,0.458,0.93,0.579,1.388,0.27l4.974-3.355c0.458-0.309,0.579-0.93,0.27-1.388l-3.355-4.974
			C18.14,24.262,17.518,24.142,17.06,24.45z M36.687,12.417l3.355,4.974c0.309,0.458,0.93,0.579,1.388,0.27l4.974-3.355
			c0.458-0.309,0.579-0.93,0.27-1.388l-1.678-2.487c-1.235-1.831-3.722-2.314-5.553-1.079l-2.487,1.678
			C36.499,11.338,36.378,11.959,36.687,12.417z M28.397,18.009l3.355,4.974c0.309,0.458,0.93,0.579,1.388,0.27l4.974-3.355
			c0.458-0.309,0.579-0.93,0.27-1.388l-3.355-4.974c-0.309-0.458-0.93-0.579-1.388-0.27l-4.974,3.355
			C28.208,16.93,28.088,17.551,28.397,18.009z"/>
		<path class="fandom_vier" d="M36.937,7.423L13.725,23.082c-3.663,2.471-4.629,7.443-2.158,11.106l3.355,4.974l36.476-24.607
			l-3.355-4.974C45.572,5.919,40.599,4.952,36.937,7.423z M21.804,29.694c0.309,0.458,0.188,1.079-0.27,1.388l-4.974,3.355
			c-0.458,0.309-1.079,0.188-1.388-0.27l-1.678-2.487c-1.235-1.831-0.752-4.318,1.079-5.553l2.487-1.678
			c0.458-0.309,1.079-0.188,1.388,0.27L21.804,29.694z M30.094,24.102c0.309,0.458,0.188,1.079-0.27,1.388l-4.974,3.355
			c-0.458,0.309-1.079,0.188-1.388-0.27l-3.355-4.974c-0.309-0.458-0.188-1.079,0.27-1.388l4.974-3.355
			c0.458-0.309,1.079-0.188,1.388,0.27L30.094,24.102z M38.384,18.509c0.309,0.458,0.188,1.079-0.27,1.388l-4.974,3.355
			c-0.458,0.309-1.079,0.188-1.388-0.27l-3.355-4.974c-0.309-0.458-0.188-1.079,0.27-1.388l4.974-3.355
			c0.458-0.309,1.079-0.188,1.388,0.27L38.384,18.509z M46.674,12.917c0.309,0.458,0.188,1.079-0.27,1.388l-4.974,3.355
			c-0.458,0.309-1.079,0.188-1.388-0.27l-3.355-4.974c-0.309-0.458-0.188-1.079,0.27-1.388l2.487-1.678
			c1.831-1.235,4.318-0.752,5.553,1.079L46.674,12.917z M14.776,44.31c-2.595,3.168-5.631,2.382-5.631,2.382
			c0.706-3.235,3.781-4.222,4.63-4.435c0.009,0.37,0.115,0.741,0.338,1.071L14.776,44.31z M17.773,48.184
			c-2.638,3.473-5.838,2.643-5.838,2.643c0.635-2.907,3.18-3.997,4.307-4.344l0.666,0.988C17.13,47.8,17.434,48.038,17.773,48.184z"
			/>
		<path class="fandom_vijftien" d="M19.685,48.011l0.829-0.559l-5.033-7.461l-0.829,0.559c-0.916,0.618-1.157,1.861-0.54,2.776
			l2.796,4.145C17.526,48.387,18.77,48.629,19.685,48.011z M54.813,30.346c-0.598,0.404-1.253,0.653-1.92,0.77
			C52.961,30.754,53,30.382,53,30c0-0.644-0.104-1.264-0.292-1.845l4.222-2.856C57.277,27.193,56.511,29.2,54.813,30.346z M51,30
			c0,2.209-1.791,4-4,4c-2.209,0-4-1.791-4-4s1.791-4,4-4C49.209,26,51,27.791,51,30z M34.917,43.768
			c-0.618,0.417-1.295,0.672-1.985,0.784c-0.054,0.007-0.095,0.008-0.145,0.013C32.922,44.065,33,43.542,33,43
			c0-0.496-0.067-0.976-0.18-1.437l4.214-2.843C37.38,40.615,36.615,42.622,34.917,43.768z M31,43c0,2.209-1.791,4-4,4s-4-1.791-4-4
			c0-2.209,1.791-4,4-4S31,40.791,31,43z"/>
		<path class="fandom_zeventien" d="M60.576,19.22l-4.145,2.796c-0.458,0.309-1.079,0.188-1.388-0.27h0
			c-0.309-0.458-0.188-1.079,0.27-1.388l4.145-2.796L60.576,19.22z M27,37c-3.314,0-6,2.686-6,6c0,3.314,2.686,6,6,6s6-2.686,6-6
			C33,39.686,30.314,37,27,37z M27,47c-2.209,0-4-1.791-4-4c0-2.209,1.791-4,4-4s4,1.791,4,4C31,45.209,29.209,47,27,47z M47,24
			c-3.314,0-6,2.686-6,6c0,3.314,2.686,6,6,6s6-2.686,6-6C53,26.686,50.314,24,47,24z M47,34c-2.209,0-4-1.791-4-4
			c0-2.209,1.791-4,4-4s4,1.791,4,4C51,32.209,49.209,34,47,34z"/>
	</g>
</g>
</svg>